<mxfile host="app.diagrams.net" agent="Mozilla/5.0 (Windows NT 10.0; Win64; x64) AppleWebKit/537.36 (KHTML, like Gecko) Chrome/140.0.0.0 Safari/537.36 Edg/140.0.0.0" version="28.2.5">
  <diagram name="Página-1" id="ueEbRcK_sobUqsjhUr_B">
    <mxGraphModel dx="675" dy="374" grid="1" gridSize="10" guides="1" tooltips="1" connect="1" arrows="1" fold="1" page="1" pageScale="1" pageWidth="827" pageHeight="1169" math="0" shadow="0">
      <root>
        <mxCell id="0" />
        <mxCell id="1" parent="0" />
        <mxCell id="suF2OpqeKzonV4mjccCn-7" value="" style="edgeStyle=orthogonalEdgeStyle;rounded=0;orthogonalLoop=1;jettySize=auto;html=1;" edge="1" parent="1" source="suF2OpqeKzonV4mjccCn-1" target="suF2OpqeKzonV4mjccCn-4">
          <mxGeometry relative="1" as="geometry" />
        </mxCell>
        <mxCell id="suF2OpqeKzonV4mjccCn-1" value="Inicio" style="ellipse;whiteSpace=wrap;html=1;" vertex="1" parent="1">
          <mxGeometry x="40" y="10" width="100" height="30" as="geometry" />
        </mxCell>
        <mxCell id="suF2OpqeKzonV4mjccCn-9" value="" style="edgeStyle=orthogonalEdgeStyle;rounded=0;orthogonalLoop=1;jettySize=auto;html=1;" edge="1" parent="1" source="suF2OpqeKzonV4mjccCn-2" target="suF2OpqeKzonV4mjccCn-8">
          <mxGeometry relative="1" as="geometry" />
        </mxCell>
        <mxCell id="suF2OpqeKzonV4mjccCn-2" value="Escrever &quot;Diz um número: &quot; &amp;amp;&amp;amp; LER n" style="shape=parallelogram;perimeter=parallelogramPerimeter;whiteSpace=wrap;html=1;fixedSize=1;" vertex="1" parent="1">
          <mxGeometry x="10" y="120" width="240" height="30" as="geometry" />
        </mxCell>
        <mxCell id="suF2OpqeKzonV4mjccCn-5" value="" style="edgeStyle=orthogonalEdgeStyle;rounded=0;orthogonalLoop=1;jettySize=auto;html=1;" edge="1" parent="1" source="suF2OpqeKzonV4mjccCn-4" target="suF2OpqeKzonV4mjccCn-2">
          <mxGeometry relative="1" as="geometry">
            <Array as="points">
              <mxPoint x="90" y="100" />
              <mxPoint x="130" y="100" />
            </Array>
          </mxGeometry>
        </mxCell>
        <mxCell id="suF2OpqeKzonV4mjccCn-4" value="LER n = 0;" style="shape=parallelogram;perimeter=parallelogramPerimeter;whiteSpace=wrap;html=1;fixedSize=1;" vertex="1" parent="1">
          <mxGeometry x="30" y="60" width="120" height="30" as="geometry" />
        </mxCell>
        <mxCell id="suF2OpqeKzonV4mjccCn-11" value="" style="edgeStyle=orthogonalEdgeStyle;rounded=0;orthogonalLoop=1;jettySize=auto;html=1;" edge="1" parent="1" source="suF2OpqeKzonV4mjccCn-8" target="suF2OpqeKzonV4mjccCn-10">
          <mxGeometry relative="1" as="geometry" />
        </mxCell>
        <mxCell id="suF2OpqeKzonV4mjccCn-12" value="Sim" style="edgeLabel;html=1;align=center;verticalAlign=middle;resizable=0;points=[];" vertex="1" connectable="0" parent="suF2OpqeKzonV4mjccCn-11">
          <mxGeometry x="-0.6133" y="-1" relative="1" as="geometry">
            <mxPoint as="offset" />
          </mxGeometry>
        </mxCell>
        <mxCell id="suF2OpqeKzonV4mjccCn-16" value="" style="edgeStyle=orthogonalEdgeStyle;rounded=0;orthogonalLoop=1;jettySize=auto;html=1;" edge="1" parent="1" source="suF2OpqeKzonV4mjccCn-8" target="suF2OpqeKzonV4mjccCn-15">
          <mxGeometry relative="1" as="geometry" />
        </mxCell>
        <mxCell id="suF2OpqeKzonV4mjccCn-17" value="Não" style="edgeLabel;html=1;align=center;verticalAlign=middle;resizable=0;points=[];" vertex="1" connectable="0" parent="suF2OpqeKzonV4mjccCn-16">
          <mxGeometry x="-0.4393" y="1" relative="1" as="geometry">
            <mxPoint as="offset" />
          </mxGeometry>
        </mxCell>
        <mxCell id="suF2OpqeKzonV4mjccCn-8" value="n == 0" style="rhombus;whiteSpace=wrap;html=1;" vertex="1" parent="1">
          <mxGeometry x="40" y="190" width="80" height="80" as="geometry" />
        </mxCell>
        <mxCell id="suF2OpqeKzonV4mjccCn-14" value="" style="edgeStyle=orthogonalEdgeStyle;rounded=0;orthogonalLoop=1;jettySize=auto;html=1;" edge="1" parent="1" source="suF2OpqeKzonV4mjccCn-10" target="suF2OpqeKzonV4mjccCn-13">
          <mxGeometry relative="1" as="geometry" />
        </mxCell>
        <mxCell id="suF2OpqeKzonV4mjccCn-10" value="&lt;div style=&quot;text-align: left;&quot;&gt;&lt;font style=&quot;font-size: 12px;&quot;&gt;&lt;span style=&quot;margin: 0px; padding: 1.36057px 0px 0px; user-select: text; -webkit-user-drag: none; -webkit-tap-highlight-color: transparent; touch-action: pan-x pan-y; font-variant-numeric: normal; font-variant-east-asian: normal; font-variant-alternates: normal; font-variant-position: normal; font-variant-emoji: normal; letter-spacing: 0px; white-space-collapse: preserve; background-color: rgb(245, 245, 245); opacity: 0.8; font-family: Calibri, Calibri_EmbeddedFont, Calibri_MSFontService, sans-serif; font-kerning: normal; line-height: 25px; vertical-align: -1.36057px;&quot; lang=&quot;PT-PT&quot; class=&quot;TextRun SCXP7829433 BCX8&quot; data-contrast=&quot;none&quot; data-usefontface=&quot;false&quot; data-scheme-color=&quot;@FFFFFF,0,0:80000&quot;&gt;&lt;span style=&quot;margin: 0px; padding: 0px; user-select: text; -webkit-user-drag: none; -webkit-tap-highlight-color: transparent; touch-action: pan-x pan-y; vertical-align: 1.36057px; line-height: 0px; position: relative;&quot; class=&quot;NormalTextRun SCXP7829433 BCX8&quot;&gt;Digitou 0 - vai sair do &lt;/span&gt;&lt;/span&gt;&lt;span style=&quot;margin: 0px; padding: 1.36057px 0px 0px; user-select: text; -webkit-user-drag: none; -webkit-tap-highlight-color: transparent; touch-action: pan-x pan-y; font-variant-numeric: normal; font-variant-east-asian: normal; font-variant-alternates: normal; font-variant-position: normal; font-variant-emoji: normal; letter-spacing: 0px; white-space-collapse: preserve; background-color: rgb(245, 245, 245); opacity: 0.8; font-family: Calibri, Calibri_EmbeddedFont, Calibri_MSFontService, sans-serif; font-kerning: normal; line-height: 25px; vertical-align: -1.36057px;&quot; lang=&quot;PT-PT&quot; class=&quot;TextRun SCXP7829433 BCX8&quot; data-contrast=&quot;none&quot; data-usefontface=&quot;false&quot; data-scheme-color=&quot;@FFFFFF,0,0:80000&quot;&gt;&lt;span style=&quot;margin: 0px; padding: 0px; user-select: text; -webkit-user-drag: none; -webkit-tap-highlight-color: transparent; touch-action: pan-x pan-y; vertical-align: 1.36057px; line-height: 0px; position: relative;&quot; class=&quot;NormalTextRun SCXP7829433 BCX8&quot;&gt;programa&lt;/span&gt;&lt;/span&gt;&lt;/font&gt;&lt;/div&gt;" style="shape=parallelogram;perimeter=parallelogramPerimeter;whiteSpace=wrap;html=1;fixedSize=1;" vertex="1" parent="1">
          <mxGeometry x="10" y="310" width="200" height="30" as="geometry" />
        </mxCell>
        <mxCell id="suF2OpqeKzonV4mjccCn-13" value="Fim" style="ellipse;whiteSpace=wrap;html=1;" vertex="1" parent="1">
          <mxGeometry x="70" y="360" width="80" height="30" as="geometry" />
        </mxCell>
        <mxCell id="suF2OpqeKzonV4mjccCn-19" value="" style="edgeStyle=orthogonalEdgeStyle;rounded=0;orthogonalLoop=1;jettySize=auto;html=1;" edge="1" parent="1" source="suF2OpqeKzonV4mjccCn-15" target="suF2OpqeKzonV4mjccCn-18">
          <mxGeometry relative="1" as="geometry" />
        </mxCell>
        <mxCell id="suF2OpqeKzonV4mjccCn-20" value="Sim" style="edgeLabel;html=1;align=center;verticalAlign=middle;resizable=0;points=[];" vertex="1" connectable="0" parent="suF2OpqeKzonV4mjccCn-19">
          <mxGeometry x="-0.5545" relative="1" as="geometry">
            <mxPoint as="offset" />
          </mxGeometry>
        </mxCell>
        <mxCell id="suF2OpqeKzonV4mjccCn-22" value="" style="edgeStyle=orthogonalEdgeStyle;rounded=0;orthogonalLoop=1;jettySize=auto;html=1;" edge="1" parent="1" source="suF2OpqeKzonV4mjccCn-15" target="suF2OpqeKzonV4mjccCn-21">
          <mxGeometry relative="1" as="geometry">
            <Array as="points">
              <mxPoint x="340" y="200" />
            </Array>
          </mxGeometry>
        </mxCell>
        <mxCell id="suF2OpqeKzonV4mjccCn-23" value="Não" style="edgeLabel;html=1;align=center;verticalAlign=middle;resizable=0;points=[];" vertex="1" connectable="0" parent="suF2OpqeKzonV4mjccCn-22">
          <mxGeometry x="-0.12" y="-1" relative="1" as="geometry">
            <mxPoint as="offset" />
          </mxGeometry>
        </mxCell>
        <mxCell id="suF2OpqeKzonV4mjccCn-15" value="n &amp;gt; 0" style="rhombus;whiteSpace=wrap;html=1;" vertex="1" parent="1">
          <mxGeometry x="160" y="160" width="80" height="80" as="geometry" />
        </mxCell>
        <mxCell id="suF2OpqeKzonV4mjccCn-18" value="Escreve &quot;O número é positivo.\n&quot;" style="shape=parallelogram;perimeter=parallelogramPerimeter;whiteSpace=wrap;html=1;fixedSize=1;" vertex="1" parent="1">
          <mxGeometry x="130" y="280" width="210" height="20" as="geometry" />
        </mxCell>
        <mxCell id="suF2OpqeKzonV4mjccCn-24" style="edgeStyle=orthogonalEdgeStyle;rounded=0;orthogonalLoop=1;jettySize=auto;html=1;exitX=1;exitY=0.75;exitDx=0;exitDy=0;" edge="1" parent="1" source="suF2OpqeKzonV4mjccCn-21" target="suF2OpqeKzonV4mjccCn-2">
          <mxGeometry relative="1" as="geometry">
            <mxPoint x="430" y="250" as="sourcePoint" />
            <mxPoint x="240" y="145" as="targetPoint" />
            <Array as="points">
              <mxPoint x="426" y="239" />
              <mxPoint x="460" y="239" />
              <mxPoint x="460" y="140" />
            </Array>
          </mxGeometry>
        </mxCell>
        <mxCell id="suF2OpqeKzonV4mjccCn-21" value="Escreve &quot;O número é negativo.\n&quot;" style="shape=parallelogram;perimeter=parallelogramPerimeter;whiteSpace=wrap;html=1;fixedSize=1;" vertex="1" parent="1">
          <mxGeometry x="240" y="230" width="210" height="20" as="geometry" />
        </mxCell>
        <mxCell id="suF2OpqeKzonV4mjccCn-27" style="edgeStyle=orthogonalEdgeStyle;rounded=0;orthogonalLoop=1;jettySize=auto;html=1;entryX=1.003;entryY=0.131;entryDx=0;entryDy=0;entryPerimeter=0;" edge="1" parent="1" source="suF2OpqeKzonV4mjccCn-18" target="suF2OpqeKzonV4mjccCn-2">
          <mxGeometry relative="1" as="geometry">
            <Array as="points">
              <mxPoint x="470" y="285" />
              <mxPoint x="470" y="124" />
            </Array>
          </mxGeometry>
        </mxCell>
      </root>
    </mxGraphModel>
  </diagram>
</mxfile>
